<svg id="KDB산업은행" xmlns="http://www.w3.org/2000/svg" xmlns:xlink="http://www.w3.org/1999/xlink" width="32" height="32" viewBox="0 0 32 32">
  <defs>
    <linearGradient id="linear-gradient" x1="0.5" x2="0.5" y2="1" gradientUnits="objectBoundingBox">
      <stop offset="0" stop-color="#c7e0f5"/>
      <stop offset="0.06" stop-color="#bfdbf3"/>
      <stop offset="0.152" stop-color="#a9d0ef"/>
      <stop offset="0.25" stop-color="#8bc1e9"/>
      <stop offset="0.329" stop-color="#78b3e0"/>
      <stop offset="0.488" stop-color="#4890c8"/>
      <stop offset="0.7" stop-color="#005ca6"/>
      <stop offset="0.813" stop-color="#004b93"/>
      <stop offset="1" stop-color="#002a6d"/>
    </linearGradient>
  </defs>
  <circle id="타원_74" data-name="타원 74" cx="16" cy="16" r="16" fill="#f5f5f5"/>
  <g id="그룹_804" data-name="그룹 804" transform="translate(-845 -10886.415)">
    <g id="그룹_802" data-name="그룹 802" transform="translate(454.715 10655.865)">
      <path id="패스_2551" data-name="패스 2551" d="M397.755,240.277c-.5.989.01,3.031.639,4.012l8.647,13.576h-6.318a3.016,3.016,0,0,1-2.4-1.226l-4.716-7.411a2.482,2.482,0,0,1,0-2.455Z" fill="url(#linear-gradient)"/>
      <path id="패스_2552" data-name="패스 2552" d="M401.406,246.966a2.13,2.13,0,0,0-.091,1.909l-2.921-4.586c-.629-.981-1.137-3.023-.639-4.012l.52-.815a2.8,2.8,0,0,1,2.443-1.228h6.215Z" fill="url(#linear-gradient)"/>
    </g>
    <g id="그룹_803" data-name="그룹 803" transform="translate(1266.715 11148.965) rotate(180)">
      <path id="패스_2551-2" data-name="패스 2551" d="M397.755,240.277c-.5.989.01,3.031.639,4.012l8.647,13.576h-6.318a3.016,3.016,0,0,1-2.4-1.226l-4.716-7.411a2.482,2.482,0,0,1,0-2.455Z" fill="url(#linear-gradient)"/>
      <path id="패스_2552-2" data-name="패스 2552" d="M401.406,246.966a2.13,2.13,0,0,0-.091,1.909l-2.921-4.586c-.629-.981-1.137-3.023-.639-4.012l.52-.815a2.8,2.8,0,0,1,2.443-1.228h6.215Z" fill="url(#linear-gradient)"/>
    </g>
  </g>
</svg>
