<svg id="SBI_저축은행" data-name="SBI 저축은행" xmlns="http://www.w3.org/2000/svg" width="32" height="32" viewBox="0 0 32 32">
  <circle id="타원_70" data-name="타원 70" cx="16" cy="16" r="16" fill="#f5f5f5"/>
  <g id="그룹_805" data-name="그룹 805" transform="translate(-300.016 -296.145)">
    <path id="패스_2553" data-name="패스 2553" d="M327.332,350.374c-.2,1.09.359,1.44,1.328,1.44.687,0,1.457-.261,1.612-.948.186-.817-1.029-.972-2.207-1.35s-2.341-.973-1.956-2.674c.46-2.023,2.563-2.817,4.206-2.817,1.741,0,3.292.9,2.829,2.988h-2.279c.228-.845-.458-1.117-1.156-1.117a1.2,1.2,0,0,0-1.282.792c-.162.713,1.071.843,2.26,1.221s2.31,1,1.932,2.673c-.532,2.348-2.592,3.1-4.516,3.1-2.011,0-3.576-.935-3.05-3.309Z" transform="translate(-19.321 -33.747)" fill="#004d91"/>
    <path id="패스_2554" data-name="패스 2554" d="M428.968,345.267h2.279l-2.1,9.268h-2.281Z" transform="translate(-105.183 -34.793)" fill="#004d91"/>
    <path id="패스_2555" data-name="패스 2555" d="M376.233,345.262h4.091c1.515-.025,3.076.389,2.638,2.324a2.817,2.817,0,0,1-1.576,1.869,1.712,1.712,0,0,1,1.01,2.194c-.5,2.208-2.185,2.882-4.061,2.882h-4.2Zm1.452,3.648h1.765a1.139,1.139,0,0,0,1.131-.883c.155-.675-.25-.9-.726-.9h-1.766Zm-.835,3.685h1.826a1.313,1.313,0,0,0,1.461-1.037c.187-.819-.292-1.091-.979-1.091h-1.827Z" transform="translate(-60.756 -34.789)" fill="#004d91"/>
    <path id="패스_2556" data-name="패스 2556" d="M329.249,306.751c-1.261-3.347-8.472-3.729-16.1-.854-5.444,2.051-9.63,5.2-11.13,8.06a26.127,26.127,0,0,1,9.453-5.811c7.633-2.877,14.844-2.494,16.1.854a3.894,3.894,0,0,1-.408,3.209c1.845-1.927,2.678-3.882,2.084-5.458" fill="#e6152c"/>
  </g>
</svg>
