<svg id="경남은행" xmlns="http://www.w3.org/2000/svg" width="32" height="32" viewBox="0 0 32 32">
  <circle id="타원_70" data-name="타원 70" cx="16" cy="16" r="16" fill="#f5f5f5"/>
  <g id="그룹_822" data-name="그룹 822" transform="translate(-115.373 -275.099)">
    <path id="패스_2602" data-name="패스 2602" d="M174.94,288.406h.655a.074.074,0,0,0,.077-.072v-1.162a.075.075,0,0,0-.077-.073h-.92a1.852,1.852,0,0,0-1.949,1l-2,4.61a.61.61,0,0,1-.641.406v-5.943a.076.076,0,0,0-.078-.073h-1.469a.076.076,0,0,0-.078.073v7.122a.134.134,0,0,0,.138.129h1.647c1.063,0,1.549-.321,1.871-1l1.973-4.553a.8.8,0,0,1,.85-.465" transform="translate(-32.694)" fill="#bc0619"/>
    <path id="패스_2603" data-name="패스 2603" d="M124.288,290.762a1.639,1.639,0,0,0,1.078-1.607c0-1.279-1.167-2.055-2.572-2.055H118.45a.076.076,0,0,0-.077.073v1.162a.075.075,0,0,0,.077.072h4.043c.653,0,1.094.376,1.094.838s-.441.838-1.094.838h-2.4v-.863a.075.075,0,0,0-.077-.073H118.45a.075.075,0,0,0-.077.073v5.131a.075.075,0,0,0,.077.074h4.281c1.6,0,2.746-.7,2.746-2.135a1.59,1.59,0,0,0-1.189-1.527m-1.712,2.386h-2.485V291.43h2.485c.67,0,1.122.385,1.122.858s-.452.859-1.122.859" fill="#bc0619"/>
    <path id="패스_2604" data-name="패스 2604" d="M185.442,302.237l-2.518-3.033a.013.013,0,0,0-.023,0l-.679,1.561a.03.03,0,0,0,0,.029l1.1,1.39a.344.344,0,0,0,.3.134H185.4a.049.049,0,0,0,.042-.084" transform="translate(-41.676 -7.898)" fill="#bc0619"/>
    <path id="패스_2605" data-name="패스 2605" d="M143.866,292.993H142.4a.075.075,0,0,0-.077.073V298.2a.075.075,0,0,0,.077.074h1.471a.075.075,0,0,0,.077-.074v-5.131a.076.076,0,0,0-.077-.073" transform="translate(-15.63 -3.847)" fill="#bc0619"/>
    <path id="패스_2606" data-name="패스 2606" d="M149.917,287.1h-1.47a.075.075,0,0,0-.077.073v5.943a.608.608,0,0,1-.64-.406l-2-4.61c-.322-.681-.886-1-1.949-1H142.4a.075.075,0,0,0-.077.073v1.162a.074.074,0,0,0,.077.072h1.121a.8.8,0,0,1,.85.465l1.973,4.553c.322.678.808,1,1.871,1h1.648a.132.132,0,0,0,.136-.129v-7.122a.075.075,0,0,0-.077-.073" transform="translate(-15.63)" fill="#bc0619"/>
  </g>
</svg>
