<svg id="국민은행" xmlns="http://www.w3.org/2000/svg" width="32" height="32" viewBox="0 0 32 32">
  <circle id="타원_71" data-name="타원 71" cx="16" cy="16" r="16" fill="#f5f5f5"/>
  <g id="국민은행-2" data-name="국민은행" transform="translate(4.157 7.4)">
    <path id="국민은행-3" data-name="국민은행" d="M121.444,331.5l-.2-.128a3.613,3.613,0,0,0-2.924-.91,5.5,5.5,0,0,0-2.555.881c0-.01,0-.019,0-.029a10.3,10.3,0,0,1,.075-1.047,10.264,10.264,0,0,0,.076-1.064,2.483,2.483,0,0,0-.161-.968.188.188,0,0,0-.182-.117,2.786,2.786,0,0,0-1.179.386l-.089.194a7.913,7.913,0,0,1-.174,1.574s-.046.128-.046.128a19.224,19.224,0,0,0-.013,4c.015.114.236.288.406.35a2.573,2.573,0,0,0,1.109-.216l.128-.019a.193.193,0,0,0,.164-.223s.008-.33.008-.33a3.294,3.294,0,0,1,2.4-2.349,1.658,1.658,0,0,1,1.591.513,2.174,2.174,0,0,1-.259,1.611,3.338,3.338,0,0,1-1.821,1.437,6.993,6.993,0,0,1-2.788.391l-1.025-.692a14.8,14.8,0,0,0-2.924-1.739,3.453,3.453,0,0,1-.664-.474l-.1-.083c-.564-.453-1.637-1.167-2.5-1.742l-.465-.311,0-.1c.025-.027.565-.352.565-.352a5.812,5.812,0,0,0,1.184-.773c-.015.018.1-.06.1-.06l1.879-1.063a23.069,23.069,0,0,0,4.922-3.228s.052-.169.052-.169l.023-.151a1.053,1.053,0,0,0,.016-.632.2.2,0,0,0-.146-.144,4.107,4.107,0,0,0-2.9,1.342,2.571,2.571,0,0,1-.606.418l-.15.084c-1.085.617-3.531,2.134-4.809,2.953a43.274,43.274,0,0,1,.651-4.966l-.034-.195-.132-.247-.1-.177-.029-.007a.8.8,0,0,0-.617-.037l-.256.094-.34.124a.187.187,0,0,0-.142.12,20.737,20.737,0,0,0-1.241,5.85,29.454,29.454,0,0,0-2.9-1.606l-.016-.008-.066-.015a2.06,2.06,0,0,1-.676-.314l-.463-.3-.711-.454c.007,0-.186-.043-.186-.043a2.215,2.215,0,0,0-1.064.713.2.2,0,0,0-.032.115.631.631,0,0,0,.032.167l.032.145.033.087a10.179,10.179,0,0,0,2.04,1.383l.976.517,1.493.816c0,.007.256.2.256.2l.176.1.03.019-2.715,1.814-1.429.946a8.2,8.2,0,0,1-.823.4,1.176,1.176,0,0,0-.642.53l-.038.082.038.055.109.083s.147.1.147.1l.157.108s.149.022.149.022a3.771,3.771,0,0,0,1.318-.437c.638-.283,2.373-1.329,3.114-1.776l.317-.19a.7.7,0,0,0,.4-.2,3.97,3.97,0,0,1,.67-.4l.224-.123c0,.033,0,.085,0,.085a30.375,30.375,0,0,0,.411,5.188l0,.023.024.051a5.641,5.641,0,0,1,.384,1.192l.283.946c.005.011.08.089.08.089a1.879,1.879,0,0,0,.981.259l.082-.01.052-.115a2.237,2.237,0,0,0,.037-.433c0-.173-.013-.365-.028-.6l-.022-.342c-.1-1.584-.208-3.871-.208-5.391,0-.043,0-.08,0-.121l1.446.911c2,1.3,5.028,3.263,6.857,3.782a.27.27,0,0,0,.265-.061s.282-.181.282-.181l.051-.021a.507.507,0,0,0,.189-.42,6.853,6.853,0,0,0,4.841-2.116,3.014,3.014,0,0,0,.646-1.836,1.556,1.556,0,0,0-.376-1.125" transform="translate(-98.517 -322.984)" fill="#fca400"/>
  </g>
</svg>
