<svg id="기업은행" xmlns="http://www.w3.org/2000/svg" width="32" height="32" viewBox="0 0 32 32">
  <circle id="타원_74" data-name="타원 74" cx="16" cy="16" r="16" fill="#f5f5f5"/>
  <g id="그룹_789" data-name="그룹 789" transform="translate(-98.972 -268.686)">
    <path id="패스_2536" data-name="패스 2536" d="M109.324,273.951a2.46,2.46,0,0,0-1.246,1.44L104.1,287.344a2.488,2.488,0,0,0,1.571,3.145l13.046,4.382a2.49,2.49,0,0,0,3.147-1.578l3.98-11.949a2.493,2.493,0,0,0-1.576-3.149l-13.043-4.379a2.465,2.465,0,0,0-1.9.136" transform="translate(0)" fill="#fff"/>
    <path id="패스_2537" data-name="패스 2537" d="M116.082,286.223a6.593,6.593,0,0,1-2.538,1.836l-.569.23v-5.57l.563.226a6.6,6.6,0,0,1,2.544,1.826,6.157,6.157,0,0,0,.859-2.8A6.063,6.063,0,0,0,113.268,276l-1.825-.63a1.55,1.55,0,0,0-1.975,1.039L105.6,288.43a1.65,1.65,0,0,0,1.013,2.064l8.779,3.039a6.2,6.2,0,0,0,.689-7.31m-5.074-3.836v6.242h-.871v-6.242Z" transform="translate(-0.737 -0.76)" fill="#0096de"/>
    <path id="패스_2538" data-name="패스 2538" d="M133.686,281.163l-8.058-2.793a7.038,7.038,0,0,1,1.748,4.646,7.142,7.142,0,0,1-1.163,3.9,7.076,7.076,0,0,1-.385,8.335l3.026,1.048a1.547,1.547,0,0,0,1.975-1.041l3.87-12.03a1.656,1.656,0,0,0-1.014-2.065m-2.136,8.862-1.089,0-2.24-3.121,2.276-3.125,1.095,0-2.276,3.132Z" transform="translate(-9.646 -2.23)" fill="#003988"/>
    <path id="패스_2539" data-name="패스 2539" d="M123.111,292.816a5.811,5.811,0,0,0-1.767-1.41v2.829a5.893,5.893,0,0,0,1.767-1.419" transform="translate(-7.962 -8.102)" fill="#e01f06"/>
  </g>
</svg>
