<svg id="대구은행" xmlns="http://www.w3.org/2000/svg" xmlns:xlink="http://www.w3.org/1999/xlink" width="32" height="32" viewBox="0 0 32 32">
  <defs>
    <linearGradient id="linear-gradient" x1="-0.017" y1="0.5" x2="1.008" y2="0.5" gradientUnits="objectBoundingBox">
      <stop offset="0.1" stop-color="#0064b6"/>
      <stop offset="0.224" stop-color="#006abc"/>
      <stop offset="0.396" stop-color="#007bce"/>
      <stop offset="0.4" stop-color="#007ccf"/>
      <stop offset="0.75" stop-color="#009e84"/>
      <stop offset="1" stop-color="#6dad19"/>
    </linearGradient>
  </defs>
  <circle id="타원_74" data-name="타원 74" cx="16" cy="16" r="16" fill="#f5f5f5"/>
  <g id="그룹_818" data-name="그룹 818" transform="translate(-246.67 -264.223)">
    <g id="그룹_816" data-name="그룹 816" transform="translate(249.67 271.656)">
      <path id="패스_2572" data-name="패스 2572" d="M262.2,271.656c-7.554,0-12.532,3.964-12.532,8.856s4.978,8.855,12.532,8.855,12.534-3.965,12.534-8.855S269.758,271.656,262.2,271.656Z" transform="translate(-249.67 -271.656)" fill="#fff"/>
      <path id="패스_2573" data-name="패스 2573" d="M264.948,284.314c2.162-.376,9.46-1.88,8.561-6.051-.324-1.5-1.86-3.142-4.179-4.286a16.232,16.232,0,0,0-6.655-1.32c-7.044,0-11.943,3.728-11.943,8.327,0,3.2,2.378,5.984,6.2,7.376C257.746,286.222,260.977,285,264.948,284.314Z" transform="translate(-250.147 -272.106)" fill="#0064b6"/>
      <path id="패스_2574" data-name="패스 2574" d="M267.143,290.657c-3.007.378-4.387,1.349-5.273,2.528a16.181,16.181,0,0,0,5.23.82c6.706,0,11.37-3.543,11.37-7.915a6.031,6.031,0,0,0-.109-1.141C278.139,290.082,270.433,290.248,267.143,290.657Z" transform="translate(-254.047 -276.846)" fill="url(#linear-gradient)"/>
    </g>
    <g id="그룹_817" data-name="그룹 817" transform="translate(252.905 276.252)">
      <path id="패스_2575" data-name="패스 2575" d="M257.788,279.52h-2.249l.026.064a3.267,3.267,0,0,1,.087,1.076c0,.093,0,5.192,0,5.192l.045,0c.01,0,1.025.037,1.986.037a3.194,3.194,0,0,0,3.359-3.388A2.928,2.928,0,0,0,257.788,279.52Zm-1.175.567c.13-.01.526-.039.814-.039,1.717,0,2.518.832,2.518,2.62,0,1.847-.712,2.745-2.174,2.745-1.07,0-1.157-.052-1.157-.686Z" transform="translate(-255.539 -279.462)" fill="#fff"/>
      <path id="패스_2576" data-name="패스 2576" d="M272,285.764c-.034-.371-.047-.625-.047-.843V282.7h-1.069l.035.068a1.62,1.62,0,0,1,.109.68c0,.016,0,1.541-.039,1.9a3.69,3.69,0,0,1-.827.09c-1.695,0-2.555-.974-2.555-2.892a2.527,2.527,0,0,1,2.354-2.657,2.626,2.626,0,0,1,1.873.53l.077.067v-.9l-.037-.007a7.873,7.873,0,0,0-1.463-.174c-2.441,0-3.9,1.284-3.9,3.436,0,2.292,1.78,3.108,3.446,3.108a13.041,13.041,0,0,0,2-.146l.043-.007Z" transform="translate(-260.464 -279.415)" fill="#fff"/>
      <path id="패스_2577" data-name="패스 2577" d="M281.108,282.376a1.561,1.561,0,0,0,1.2-1.487c0-.858-.773-1.369-2.068-1.369h-1.924l.013.057a4.32,4.32,0,0,1,.056.839v5.491h.047c.008,0,.756-.015,1.684-.015,1.617,0,2.544-.7,2.544-1.926A1.75,1.75,0,0,0,281.108,282.376Zm-1.768.309h.5c1.148,0,1.728.45,1.728,1.337,0,.936-.5,1.392-1.53,1.392-.5,0-.693-.18-.693-.642Zm0-2.667h.628c.99,0,1.411.3,1.411,1,0,.8-.519,1.17-1.632,1.17h-.41Z" transform="translate(-265.759 -279.462)" fill="#fff"/>
    </g>
  </g>
</svg>
