<svg id="수협은행" xmlns="http://www.w3.org/2000/svg" width="32" height="32" viewBox="0 0 32 32">
  <circle id="타원_70" data-name="타원 70" cx="16" cy="16" r="16" fill="#f5f5f5"/>
  <g id="그룹_824" data-name="그룹 824" transform="translate(-243.686 -221.409)">
    <path id="패스_2607" data-name="패스 2607" d="M266.678,237.61a.779.779,0,1,0-.78-.776A.779.779,0,0,0,266.678,237.61Z" transform="translate(-9.807 -3.901)" fill="#0057aa"/>
    <path id="패스_2608" data-name="패스 2608" d="M251.377,245.582a.781.781,0,1,0-.782-.781A.781.781,0,0,0,251.377,245.582Z" transform="translate(-1.995 -7.969)" fill="#0057aa"/>
    <path id="패스_2609" data-name="패스 2609" d="M268.933,237.306s-.327.942.216,1.378c0,0,.724.757-.143.612a14.03,14.03,0,0,0-5.213.4,3.96,3.96,0,0,0-2.208,1.23,1.166,1.166,0,0,0,.255,1.844s.834.687-.327.687c0,0-3.8.475-6.223-.869,0,0-2.21-1.193-.217-2.586a6.171,6.171,0,0,1,2.639-.993,15.3,15.3,0,0,1,5.645-.057s-3.361-1.606,0-3.31c0,0,2.1-1.193,6.3-.76a8.917,8.917,0,0,1,2.14.337c-1.418-3.916-6.393-6.812-12.329-6.812-6.835,0-12.4,3.834-12.722,8.647.08-.221.775-1.711,4.929-2.043a19.517,19.517,0,0,1,4.157.252s-3.652-1.523-.2-3.316c0,0,2.856-1.662,8.648-.467,0,0,.67.254,0,.524,0,0-2.388.451-2.964,1.829a1.318,1.318,0,0,0,.342,1.391s.507.383-.364.365a11.386,11.386,0,0,0-6.567,1.064s-2.024,1.087-.431,2.537c0,0,.615.4-.182.506,0,0-5.718.76-7.328-1.774l-.049-.086c.256,4.847,5.846,8.475,12.728,8.475,7.039,0,12.747-3.8,12.747-8.817a6.6,6.6,0,0,0-.255-1.813A4.642,4.642,0,0,0,268.933,237.306Z" transform="translate(-0.026)" fill="#0057aa"/>
    <path id="패스_2610" data-name="패스 2610" d="M266.939,251.471a.78.78,0,1,0,0,1.559.78.78,0,1,0,0-1.559Z" transform="translate(-9.94 -11.772)" fill="#0057aa"/>
    <path id="패스_2611" data-name="패스 2611" d="M246.694,247.286l.017.028c-.006-.114-.025-.226-.025-.342Z" transform="translate(0 -9.476)" fill="#0057aa"/>
    <path id="패스_2612" data-name="패스 2612" d="M282.276,243.591a.781.781,0,1,0,.779.778A.779.779,0,0,0,282.276,243.591Z" transform="translate(-17.769 -7.75)" fill="#0057aa"/>
    <path id="패스_2613" data-name="패스 2613" d="M246.706,246.1s-.02.22-.02.41c0-.149.02-.294.031-.441Z" transform="translate(0 -9.017)" fill="#0057aa"/>
    <path id="패스_2614" data-name="패스 2614" d="M298.088,242.787l-.083-.267-.067-.189-.017-.005c.055.154.119.3.164.462Z" transform="translate(-26.154 -7.104)" fill="#0057aa"/>
  </g>
</svg>
