<svg id="신협은행" xmlns="http://www.w3.org/2000/svg" width="32" height="32" viewBox="0 0 32 32">
  <circle id="타원_74" data-name="타원 74" cx="16" cy="16" r="16" fill="#f5f5f5"/>
  <path id="패스_2601" data-name="패스 2601" d="M595.992,426.478a6.275,6.275,0,0,1-2.943,3.5,10.364,10.364,0,0,0,2.111-11.825c-.8-1.418.22-2.038.22-2.038a1.873,1.873,0,0,0-1.6,2.511,9.653,9.653,0,0,1,.536,6.452l-.767-.43.014-.018s1.818-7.164-5.6-9.675l-.006-1.349h-1.566v8.877l7.277,4.148c-.131.269-.272.521-.419.763l-7.308-4.235L578.6,427.4c-.144-.242-.286-.494-.419-.763l7.277-4.148V413.61h-1.565l-.005,1.349c-7.414,2.511-5.6,9.675-5.6,9.675l.012.018-.769.43a9.647,9.647,0,0,1,.538-6.452,1.873,1.873,0,0,0-1.6-2.511s1.018.62.217,2.038a10.365,10.365,0,0,0,2.112,11.825,6.28,6.28,0,0,1-2.944-3.5,2.135,2.135,0,0,0-2.369-1.044l1.047,1.508a9.092,9.092,0,0,0,7.649,5.768v2.767h2.982V431.4a8.289,8.289,0,0,1-5.58-2.685l.749-.437a9.09,9.09,0,0,0,5.572,2.314v0h.036v0a9.1,9.1,0,0,0,5.573-2.314l.747.437a8.289,8.289,0,0,1-5.58,2.685v4.074h2.984v-2.767a9.089,9.089,0,0,0,7.648-5.768,2.393,2.393,0,0,1,1.048-1.508,2.137,2.137,0,0,0-2.371,1.044m-3.887-2.644-.008.007-4.1-2.3-.023-4.912h.023s4.949,1.343,4.111,7.2m-8.247-7.2h.023l-.023,4.912-4.107,2.3,0-.007c-.837-5.859,4.11-7.2,4.11-7.2m6.173,10.79-.036-.019a6.157,6.157,0,0,1-8.138,0l-.036.019v-.007l4.116-2.4,4.093,2.4Z" transform="translate(-570.488 -408.544)" fill="#004598"/>
</svg>
