<svg id="씨티은행" xmlns="http://www.w3.org/2000/svg" width="32" height="32" viewBox="0 0 32 32">
  <circle id="타원_70" data-name="타원 70" cx="16" cy="16" r="16" fill="#f5f5f5"/>
  <g id="그룹_801" data-name="그룹 801" transform="translate(-121.153 -233.387)">
    <g id="그룹_800" data-name="그룹 800" transform="translate(124.153 241.387)">
      <path id="패스_2547" data-name="패스 2547" d="M191.4,245.5a9.663,9.663,0,0,0-15.821,0l-.093.133h2.291l.025-.027a7.806,7.806,0,0,1,11.376,0l.026.027h2.289l-.092-.133Z" transform="translate(-167.151 -241.387)" fill="#dc000c" fill-rule="evenodd"/>
      <g id="그룹_799" data-name="그룹 799" transform="translate(0 2.818)">
        <g id="그룹_798" data-name="그룹 798">
          <g id="그룹_797" data-name="그룹 797">
            <g id="그룹_796" data-name="그룹 796">
              <g id="그룹_795" data-name="그룹 795">
                <g id="그룹_794" data-name="그룹 794">
                  <g id="그룹_793" data-name="그룹 793">
                    <g id="그룹_792" data-name="그룹 792">
                      <g id="그룹_791" data-name="그룹 791">
                        <path id="패스_2548" data-name="패스 2548" d="M131.58,283.334l-.043.044a3.313,3.313,0,0,1-2.357,1.1,3.126,3.126,0,0,1,0-6.249,3.311,3.311,0,0,1,2.357,1.1l.043.044,1.125-1.362-.03-.036a4.3,4.3,0,0,0-3.441-1.645,5.221,5.221,0,0,0-3.565,1.307,5.317,5.317,0,0,0,0,7.436,5.206,5.206,0,0,0,3.565,1.309,4.3,4.3,0,0,0,3.441-1.645l.03-.035Z" transform="translate(-124.153 -273.47)" fill="#003375"/>
                        <rect id="사각형_563" data-name="사각형 563" width="1.988" height="9.709" transform="translate(9.691 3.012)" fill="#003375"/>
                        <path id="패스_2549" data-name="패스 2549" d="M212.942,269.351a2.877,2.877,0,0,1-1.468.486c-.643,0-.933-.339-.933-1.094V263.59h2.026v-1.828h-2.026v-3.022l-1.949,1.043v1.978H206.91v1.828h1.682v5.481a2.289,2.289,0,0,0,2.206,2.54,3.118,3.118,0,0,0,1.765-.445l.019-.014.479-1.871Z" transform="translate(-193.472 -258.741)" fill="#003375"/>
                        <rect id="사각형_564" data-name="사각형 564" width="1.99" height="9.709" transform="translate(21.117 3.012)" fill="#003375"/>
                      </g>
                    </g>
                  </g>
                </g>
              </g>
            </g>
          </g>
        </g>
      </g>
    </g>
  </g>
</svg>
