<svg id="우리은행" xmlns="http://www.w3.org/2000/svg" xmlns:xlink="http://www.w3.org/1999/xlink" width="32" height="32" viewBox="0 0 32 32">
  <defs>
    <clipPath id="clip-path">
      <path id="패스_2527" data-name="패스 2527" d="M185.059,350.152a10.433,10.433,0,1,0-10.436-10.432A10.431,10.431,0,0,0,185.059,350.152Z" transform="translate(-174.623 -329.286)" fill="none"/>
    </clipPath>
  </defs>
  <circle id="타원_70" data-name="타원 70" cx="16" cy="16" r="16" fill="#f5f5f5"/>
  <g id="우리은행-2" data-name="우리은행" transform="translate(5 5)">
    <path id="패스_2462" data-name="패스 2462" d="M195.381,339.049a11,11,0,1,1-11-11A11,11,0,0,1,195.381,339.049Z" transform="translate(-173.381 -328.051)" fill="#fff"/>
    <g id="그룹_766" data-name="그룹 766" transform="translate(0.567 0.564)">
      <path id="패스_2463" data-name="패스 2463" d="M185.059,350.152a10.433,10.433,0,1,0-10.436-10.432A10.431,10.431,0,0,0,185.059,350.152Z" transform="translate(-174.623 -329.286)" fill="#006abd"/>
    </g>
    <g id="그룹_770" data-name="그룹 770" transform="translate(0.567 0.564)">
      <g id="그룹_769" data-name="그룹 769" clip-path="url(#clip-path)">
        <g id="그룹_768" data-name="그룹 768" transform="translate(-0.597 3.505)">
          <g id="그룹_767" data-name="그룹 767">
            <path id="패스_2464" data-name="패스 2464" d="M184.266,349.62c4.584,0,8.514,1.278,10.2,3.089a10.532,10.532,0,0,0,.876-4.224,11.074,11.074,0,0,0-22.143,0,10.543,10.543,0,0,0,.875,4.224C175.751,350.9,179.682,349.62,184.266,349.62Z" transform="translate(-173.197 -337.651)" fill="#006abd"/>
            <path id="패스_2465" data-name="패스 2465" d="M184.3,349.76c4.571,0,8.492,1.267,10.171,3.064a10.406,10.406,0,0,0,.874-4.19,11.047,11.047,0,0,0-22.086,0,10.413,10.413,0,0,0,.873,4.19C175.809,351.028,179.73,349.76,184.3,349.76Z" transform="translate(-173.234 -337.779)" fill="#006cbe"/>
            <path id="패스_2466" data-name="패스 2466" d="M184.338,349.9c4.56,0,8.471,1.257,10.145,3.04a10.268,10.268,0,0,0,.872-4.156,11.019,11.019,0,0,0-22.029,0,10.278,10.278,0,0,0,.871,4.156C175.867,351.157,179.778,349.9,184.338,349.9Z" transform="translate(-173.272 -337.908)" fill="#006dbf"/>
            <path id="패스_2467" data-name="패스 2467" d="M184.374,350.04c4.548,0,8.449,1.246,10.118,3.015a10.138,10.138,0,0,0,.87-4.122,10.993,10.993,0,0,0-21.973,0,10.148,10.148,0,0,0,.869,4.122C175.925,351.286,179.826,350.04,184.374,350.04Z" transform="translate(-173.309 -338.036)" fill="#006fc0"/>
            <path id="패스_2468" data-name="패스 2468" d="M184.41,350.18c4.535,0,8.427,1.236,10.092,2.989a10,10,0,0,0,.868-4.087,10.966,10.966,0,0,0-21.916,0,10.015,10.015,0,0,0,.866,4.087C175.983,351.417,179.873,350.18,184.41,350.18Z" transform="translate(-173.346 -338.165)" fill="#0071c2"/>
            <path id="패스_2469" data-name="패스 2469" d="M184.446,350.32c4.523,0,8.406,1.226,10.066,2.965a9.873,9.873,0,0,0,.866-4.054,10.94,10.94,0,0,0-21.859,0,9.882,9.882,0,0,0,.864,4.054C176.041,351.546,179.921,350.32,184.446,350.32Z" transform="translate(-173.384 -338.293)" fill="#0073c3"/>
            <path id="패스_2470" data-name="패스 2470" d="M184.481,350.46c4.512,0,8.384,1.216,10.04,2.94a9.746,9.746,0,0,0,.864-4.021,10.914,10.914,0,0,0-21.8,0,9.758,9.758,0,0,0,.862,4.021C176.1,351.676,179.968,350.46,184.481,350.46Z" transform="translate(-173.421 -338.422)" fill="#0075c4"/>
            <path id="패스_2471" data-name="패스 2471" d="M184.518,350.6c4.5,0,8.362,1.205,10.014,2.915a9.621,9.621,0,0,0,.861-3.986c0-5.65-4.874-10.331-10.875-10.331s-10.871,4.683-10.871,10.331a9.623,9.623,0,0,0,.86,3.986C176.156,351.805,180.017,350.6,184.518,350.6Z" transform="translate(-173.458 -338.55)" fill="#0076c6"/>
            <path id="패스_2472" data-name="패스 2472" d="M184.553,350.74c4.488,0,8.341,1.2,9.988,2.89a9.482,9.482,0,0,0,.859-3.951c0-5.6-4.861-10.259-10.847-10.259s-10.842,4.659-10.842,10.259a9.493,9.493,0,0,0,.858,3.951C176.214,351.935,180.064,350.74,184.553,350.74Z" transform="translate(-173.496 -338.678)" fill="#0078c7"/>
            <path id="패스_2473" data-name="패스 2473" d="M184.59,350.881c4.476,0,8.318,1.184,9.962,2.865a9.359,9.359,0,0,0,.857-3.918c0-5.554-4.848-10.187-10.819-10.187s-10.814,4.635-10.814,10.187a9.354,9.354,0,0,0,.856,3.918C176.272,352.065,180.113,350.881,184.59,350.881Z" transform="translate(-173.533 -338.807)" fill="#007ac8"/>
            <path id="패스_2474" data-name="패스 2474" d="M184.626,351.021c4.464,0,8.3,1.174,9.936,2.84a9.228,9.228,0,0,0,.855-3.884c0-5.505-4.835-10.115-10.79-10.115s-10.786,4.611-10.786,10.115a9.237,9.237,0,0,0,.853,3.884C176.329,352.194,180.16,351.021,184.626,351.021Z" transform="translate(-173.571 -338.936)" fill="#007cc9"/>
            <path id="패스_2475" data-name="패스 2475" d="M184.662,351.16c4.452,0,8.275,1.164,9.909,2.815a9.1,9.1,0,0,0,.853-3.85c0-5.458-4.822-10.043-10.762-10.043S173.9,344.67,173.9,350.126a9.1,9.1,0,0,0,.851,3.85C176.387,352.324,180.208,351.16,184.662,351.16Z" transform="translate(-173.608 -339.064)" fill="#007ecb"/>
            <path id="패스_2476" data-name="패스 2476" d="M184.7,351.3c4.439,0,8.253,1.154,9.883,2.791a8.975,8.975,0,0,0,.851-3.816c0-5.41-4.809-9.971-10.734-9.971s-10.73,4.563-10.73,9.971a8.977,8.977,0,0,0,.849,3.816C176.445,352.454,180.255,351.3,184.7,351.3Z" transform="translate(-173.645 -339.192)" fill="#0080cc"/>
            <path id="패스_2477" data-name="패스 2477" d="M184.734,351.441c4.427,0,8.232,1.143,9.857,2.765a8.846,8.846,0,0,0,.848-3.781c0-5.362-4.8-9.9-10.705-9.9s-10.7,4.539-10.7,9.9a8.843,8.843,0,0,0,.847,3.781C176.5,352.583,180.3,351.441,184.734,351.441Z" transform="translate(-173.683 -339.321)" fill="#0082cd"/>
            <path id="패스_2478" data-name="패스 2478" d="M184.77,351.58c4.416,0,8.21,1.132,9.831,2.74a8.723,8.723,0,0,0,.846-3.747c0-5.314-4.783-9.827-10.677-9.827s-10.673,4.514-10.673,9.827a8.722,8.722,0,0,0,.845,3.747C176.56,352.713,180.351,351.58,184.77,351.58Z" transform="translate(-173.72 -339.449)" fill="#0084ce"/>
            <path id="패스_2479" data-name="패스 2479" d="M184.806,351.72c4.4,0,8.188,1.122,9.8,2.715a8.6,8.6,0,0,0,.844-3.713c0-5.266-4.771-9.755-10.649-9.755s-10.644,4.491-10.644,9.755a8.6,8.6,0,0,0,.842,3.713C176.618,352.843,180.4,351.72,184.806,351.72Z" transform="translate(-173.758 -339.578)" fill="#0086cf"/>
            <path id="패스_2480" data-name="패스 2480" d="M184.842,351.86c4.391,0,8.166,1.112,9.779,2.691a8.477,8.477,0,0,0,.842-3.68c0-5.218-4.758-9.683-10.621-9.683s-10.616,4.466-10.616,9.683a8.479,8.479,0,0,0,.84,3.68C176.676,352.972,180.447,351.86,184.842,351.86Z" transform="translate(-173.795 -339.706)" fill="#0088d1"/>
            <path id="패스_2481" data-name="패스 2481" d="M184.878,352c4.38,0,8.144,1.1,9.752,2.666a8.347,8.347,0,0,0,.84-3.646c0-5.17-4.745-9.611-10.592-9.611s-10.588,4.442-10.588,9.611a8.347,8.347,0,0,0,.838,3.646C176.734,353.1,180.494,352,184.878,352Z" transform="translate(-173.832 -339.834)" fill="#008ad2"/>
            <path id="패스_2482" data-name="패스 2482" d="M184.914,352.14c4.367,0,8.123,1.091,9.727,2.641a8.233,8.233,0,0,0,.838-3.611c0-5.122-4.732-9.54-10.564-9.54s-10.559,4.419-10.559,9.54a8.224,8.224,0,0,0,.835,3.611C176.792,353.232,180.542,352.14,184.914,352.14Z" transform="translate(-173.87 -339.963)" fill="#008dd3"/>
            <path id="패스_2483" data-name="패스 2483" d="M184.95,352.281c4.356,0,8.1,1.081,9.7,2.616a8.111,8.111,0,0,0,.835-3.578c0-5.074-4.719-9.467-10.536-9.467s-10.531,4.394-10.531,9.467a8.1,8.1,0,0,0,.833,3.578C176.85,353.362,180.59,352.281,184.95,352.281Z" transform="translate(-173.907 -340.092)" fill="#008fd4"/>
            <path id="패스_2484" data-name="패스 2484" d="M184.986,352.421c4.343,0,8.079,1.07,9.674,2.591a7.99,7.99,0,0,0,.833-3.544c0-5.026-4.707-9.4-10.507-9.4s-10.5,4.37-10.5,9.4a7.981,7.981,0,0,0,.831,3.544C176.907,353.491,180.638,352.421,184.986,352.421Z" transform="translate(-173.944 -340.22)" fill="#0091d5"/>
            <path id="패스_2485" data-name="패스 2485" d="M185.021,352.56c4.332,0,8.058,1.061,9.648,2.566a7.864,7.864,0,0,0,.831-3.509c0-4.978-4.694-9.323-10.479-9.323s-10.474,4.346-10.474,9.323a7.86,7.86,0,0,0,.829,3.509C176.965,353.621,180.685,352.56,185.021,352.56Z" transform="translate(-173.981 -340.349)" fill="#0093d7"/>
            <path id="패스_2486" data-name="패스 2486" d="M185.058,352.7c4.32,0,8.036,1.05,9.622,2.541a7.742,7.742,0,0,0,.829-3.475c0-4.93-4.681-9.252-10.451-9.252s-10.446,4.323-10.446,9.252a7.743,7.743,0,0,0,.826,3.475C177.023,353.75,180.734,352.7,185.058,352.7Z" transform="translate(-174.019 -340.477)" fill="#0096d8"/>
            <path id="패스_2487" data-name="패스 2487" d="M185.094,352.841c4.308,0,8.014,1.04,9.6,2.516a7.624,7.624,0,0,0,.827-3.441c0-4.882-4.668-9.179-10.422-9.179s-10.418,4.3-10.418,9.179a7.616,7.616,0,0,0,.825,3.441C177.081,353.88,180.781,352.841,185.094,352.841Z" transform="translate(-174.056 -340.605)" fill="#0098d9"/>
            <path id="패스_2488" data-name="패스 2488" d="M185.13,352.98c4.3,0,7.992,1.029,9.569,2.492a7.5,7.5,0,0,0,.825-3.407c0-4.835-4.656-9.108-10.394-9.108s-10.389,4.274-10.389,9.108a7.5,7.5,0,0,0,.822,3.407C177.138,354.009,180.829,352.98,185.13,352.98Z" transform="translate(-174.094 -340.734)" fill="#009ada"/>
            <path id="패스_2489" data-name="패스 2489" d="M185.166,353.12c4.283,0,7.971,1.019,9.543,2.467a7.39,7.39,0,0,0,.822-3.373c0-4.787-4.643-9.036-10.366-9.036s-10.361,4.25-10.361,9.036a7.375,7.375,0,0,0,.82,3.373C177.2,354.139,180.877,353.12,185.166,353.12Z" transform="translate(-174.131 -340.862)" fill="#009ddb"/>
            <path id="패스_2490" data-name="패스 2490" d="M185.2,353.261c4.271,0,7.948,1.008,9.517,2.441a7.269,7.269,0,0,0,.82-3.339c0-4.739-4.63-8.964-10.337-8.964s-10.333,4.226-10.333,8.964a7.259,7.259,0,0,0,.818,3.339C177.254,354.269,180.924,353.261,185.2,353.261Z" transform="translate(-174.168 -340.991)" fill="#009fdd"/>
            <path id="패스_2491" data-name="패스 2491" d="M185.238,353.4c4.259,0,7.927,1,9.491,2.417a7.155,7.155,0,0,0,.818-3.3c0-4.69-4.617-8.892-10.309-8.892s-10.3,4.2-10.3,8.892a7.146,7.146,0,0,0,.815,3.3C177.312,354.4,180.973,353.4,185.238,353.4Z" transform="translate(-174.206 -341.119)" fill="#00a2de"/>
            <path id="패스_2492" data-name="패스 2492" d="M185.274,353.54c4.248,0,7.905.988,9.465,2.392a7.037,7.037,0,0,0,.816-3.271c0-4.642-4.6-8.82-10.281-8.82S175,348.019,175,352.661a7.033,7.033,0,0,0,.813,3.271C177.369,354.528,181.02,353.54,185.274,353.54Z" transform="translate(-174.243 -341.248)" fill="#00a4df"/>
            <path id="패스_2493" data-name="패스 2493" d="M185.31,353.68c4.235,0,7.883.978,9.438,2.367a6.923,6.923,0,0,0,.814-3.237c0-4.595-4.592-8.748-10.252-8.748s-10.248,4.154-10.248,8.748a6.916,6.916,0,0,0,.811,3.237C177.427,354.658,181.068,353.68,185.31,353.68Z" transform="translate(-174.281 -341.376)" fill="#00a7e0"/>
            <path id="패스_2494" data-name="패스 2494" d="M185.346,353.821c4.224,0,7.862.967,9.412,2.342a6.8,6.8,0,0,0,.812-3.2c0-4.547-4.579-8.676-10.224-8.676s-10.22,4.129-10.22,8.676a6.794,6.794,0,0,0,.809,3.2C177.485,354.788,181.116,353.821,185.346,353.821Z" transform="translate(-174.318 -341.505)" fill="#00a9e1"/>
            <path id="패스_2495" data-name="패스 2495" d="M185.382,353.96c4.212,0,7.84.956,9.386,2.317a6.694,6.694,0,0,0,.809-3.169c0-4.5-4.566-8.6-10.2-8.6s-10.191,4.106-10.191,8.6a6.685,6.685,0,0,0,.807,3.169C177.543,354.917,181.164,353.96,185.382,353.96Z" transform="translate(-174.356 -341.633)" fill="#10ace3"/>
            <path id="패스_2496" data-name="패스 2496" d="M185.4,354.105c4.206,0,7.829.951,9.373,2.3a6.627,6.627,0,0,0,.808-3.148c0-4.47-4.56-8.551-10.182-8.551s-10.178,4.082-10.178,8.551a6.614,6.614,0,0,0,.805,3.148C177.573,355.056,181.189,354.105,185.4,354.105Z" transform="translate(-174.375 -341.751)" fill="#23aee4"/>
            <path id="패스_2497" data-name="패스 2497" d="M185.421,354.249c4.2,0,7.819.944,9.361,2.287a6.557,6.557,0,0,0,.807-3.128c0-4.44-4.554-8.5-10.168-8.5s-10.164,4.059-10.164,8.5a6.543,6.543,0,0,0,.8,3.128C177.6,355.193,181.214,354.249,185.421,354.249Z" transform="translate(-174.394 -341.869)" fill="#31b1e5"/>
            <path id="패스_2498" data-name="패스 2498" d="M185.44,354.393c4.195,0,7.808.938,9.348,2.272a6.489,6.489,0,0,0,.806-3.107c0-4.411-4.548-8.446-10.154-8.446s-10.15,4.036-10.15,8.446a6.47,6.47,0,0,0,.8,3.107C177.632,355.331,181.239,354.393,185.44,354.393Z" transform="translate(-174.413 -341.986)" fill="#3cb4e6"/>
            <path id="패스_2499" data-name="패스 2499" d="M185.459,354.538c4.19,0,7.8.931,9.335,2.256a6.419,6.419,0,0,0,.8-3.086c0-4.382-4.542-8.393-10.14-8.393s-10.136,4.012-10.136,8.393a6.4,6.4,0,0,0,.8,3.086C177.662,355.469,181.264,354.538,185.459,354.538Z" transform="translate(-174.432 -342.104)" fill="#46b6e7"/>
            <path id="패스_2500" data-name="패스 2500" d="M185.479,354.683c4.184,0,7.787.926,9.322,2.242a6.351,6.351,0,0,0,.8-3.066c0-4.352-4.535-8.34-10.126-8.34s-10.123,3.988-10.123,8.34a6.332,6.332,0,0,0,.8,3.066C177.691,355.608,181.289,354.683,185.479,354.683Z" transform="translate(-174.451 -342.223)" fill="#4fb9e8"/>
            <path id="패스_2501" data-name="패스 2501" d="M185.5,354.827c4.179,0,7.776.919,9.309,2.226a6.283,6.283,0,0,0,.8-3.044c0-4.323-4.53-8.287-10.112-8.287s-10.108,3.965-10.108,8.287a6.261,6.261,0,0,0,.8,3.044C177.722,355.746,181.315,354.827,185.5,354.827Z" transform="translate(-174.471 -342.34)" fill="#58bce9"/>
            <path id="패스_2502" data-name="패스 2502" d="M185.517,354.97c4.173,0,7.765.913,9.3,2.211a6.215,6.215,0,0,0,.8-3.023c0-4.294-4.523-8.235-10.1-8.235s-10.095,3.942-10.095,8.235a6.19,6.19,0,0,0,.8,3.023C177.751,355.883,181.339,354.97,185.517,354.97Z" transform="translate(-174.49 -342.457)" fill="#60bfea"/>
            <path id="패스_2503" data-name="패스 2503" d="M185.537,355.115c4.168,0,7.755.907,9.284,2.2a6.15,6.15,0,0,0,.8-3c0-4.265-4.517-8.182-10.084-8.182s-10.081,3.918-10.081,8.182a6.124,6.124,0,0,0,.8,3C177.781,356.022,181.365,355.115,185.537,355.115Z" transform="translate(-174.51 -342.576)" fill="#68c1eb"/>
            <path id="패스_2504" data-name="패스 2504" d="M185.556,355.259c4.162,0,7.744.9,9.271,2.181a6.082,6.082,0,0,0,.8-2.982c0-4.235-4.511-8.129-10.07-8.129s-10.067,3.9-10.067,8.129a6.057,6.057,0,0,0,.795,2.982C177.811,356.16,181.39,355.259,185.556,355.259Z" transform="translate(-174.529 -342.693)" fill="#70c4ec"/>
            <path id="패스_2505" data-name="패스 2505" d="M185.575,355.4c4.157,0,7.733.894,9.258,2.166a6.018,6.018,0,0,0,.8-2.961c0-4.206-4.505-8.076-10.056-8.076s-10.053,3.871-10.053,8.076a5.99,5.99,0,0,0,.793,2.961C177.84,356.3,181.415,355.4,185.575,355.4Z" transform="translate(-174.548 -342.811)" fill="#78c7ed"/>
            <path id="패스_2506" data-name="패스 2506" d="M185.594,355.547c4.151,0,7.723.888,9.245,2.151a5.949,5.949,0,0,0,.8-2.941c0-4.177-4.5-8.023-10.042-8.023s-10.04,3.848-10.04,8.023a5.923,5.923,0,0,0,.792,2.941C177.869,356.435,181.439,355.547,185.594,355.547Z" transform="translate(-174.566 -342.928)" fill="#80caee"/>
            <path id="패스_2507" data-name="패스 2507" d="M185.613,355.692c4.146,0,7.712.882,9.232,2.136a5.877,5.877,0,0,0,.8-2.92c0-4.148-4.494-7.971-10.028-7.971s-10.026,3.824-10.026,7.971a5.852,5.852,0,0,0,.791,2.92C177.9,356.574,181.464,355.692,185.613,355.692Z" transform="translate(-174.586 -343.046)" fill="#87cdef"/>
            <path id="패스_2508" data-name="패스 2508" d="M185.633,355.837c4.14,0,7.7.875,9.219,2.12a5.814,5.814,0,0,0,.794-2.9c0-4.119-4.487-7.918-10.014-7.918s-10.012,3.8-10.012,7.918a5.79,5.79,0,0,0,.789,2.9C177.929,356.712,181.49,355.837,185.633,355.837Z" transform="translate(-174.605 -343.164)" fill="#8ed0f0"/>
            <path id="패스_2509" data-name="패스 2509" d="M185.652,355.981c4.135,0,7.691.869,9.207,2.105a5.754,5.754,0,0,0,.793-2.878c0-4.09-4.481-7.866-10-7.866s-10,3.778-10,7.866a5.718,5.718,0,0,0,.788,2.878C177.959,356.849,181.515,355.981,185.652,355.981Z" transform="translate(-174.625 -343.282)" fill="#95d2f1"/>
            <path id="패스_2510" data-name="패스 2510" d="M185.671,356.124c4.129,0,7.679.863,9.193,2.091a5.684,5.684,0,0,0,.793-2.857c0-4.06-4.475-7.813-9.986-7.813s-9.985,3.754-9.985,7.813a5.653,5.653,0,0,0,.787,2.857C177.988,356.988,181.54,356.124,185.671,356.124Z" transform="translate(-174.643 -343.4)" fill="#9cd5f2"/>
            <path id="패스_2511" data-name="패스 2511" d="M185.691,356.269c4.124,0,7.669.856,9.181,2.076a5.62,5.62,0,0,0,.791-2.837c0-4.031-4.469-7.76-9.972-7.76s-9.971,3.731-9.971,7.76a5.585,5.585,0,0,0,.786,2.837C178.019,357.126,181.565,356.269,185.691,356.269Z" transform="translate(-174.663 -343.518)" fill="#a3d8f3"/>
            <path id="패스_2512" data-name="패스 2512" d="M185.71,356.414c4.119,0,7.658.85,9.168,2.06a5.552,5.552,0,0,0,.79-2.816c0-4-4.463-7.707-9.958-7.707s-9.957,3.707-9.957,7.707a5.517,5.517,0,0,0,.784,2.816C178.048,357.264,181.59,356.414,185.71,356.414Z" transform="translate(-174.682 -343.635)" fill="#aadbf4"/>
            <path id="패스_2513" data-name="패스 2513" d="M185.729,356.557c4.113,0,7.648.844,9.156,2.045a5.491,5.491,0,0,0,.788-2.795c0-3.972-4.456-7.654-9.944-7.654s-9.943,3.685-9.943,7.654a5.452,5.452,0,0,0,.783,2.795C178.077,357.4,181.615,356.557,185.729,356.557Z" transform="translate(-174.701 -343.753)" fill="#b0def5"/>
            <path id="패스_2514" data-name="패스 2514" d="M185.749,356.7c4.107,0,7.637.838,9.142,2.03a5.425,5.425,0,0,0,.788-2.775c0-3.944-4.451-7.6-9.93-7.6s-9.93,3.661-9.93,7.6a5.388,5.388,0,0,0,.782,2.775C178.107,357.54,181.64,356.7,185.749,356.7Z" transform="translate(-174.72 -343.871)" fill="#b7e0f6"/>
            <path id="패스_2515" data-name="패스 2515" d="M185.768,356.846c4.1,0,7.626.832,9.13,2.015a5.364,5.364,0,0,0,.786-2.754c0-3.914-4.444-7.548-9.916-7.548s-9.916,3.638-9.916,7.548a5.325,5.325,0,0,0,.781,2.754C178.137,357.678,181.665,356.846,185.768,356.846Z" transform="translate(-174.74 -343.989)" fill="#bde3f7"/>
            <path id="패스_2516" data-name="패스 2516" d="M185.787,356.99c4.1,0,7.615.825,9.117,2a5.3,5.3,0,0,0,.785-2.733c0-3.885-4.438-7.5-9.9-7.5s-9.9,3.614-9.9,7.5a5.253,5.253,0,0,0,.78,2.733C178.167,357.816,181.691,356.99,185.787,356.99Z" transform="translate(-174.759 -344.106)" fill="#c3e6f8"/>
            <path id="패스_2517" data-name="패스 2517" d="M185.806,357.135c4.091,0,7.6.819,9.1,1.985a5.238,5.238,0,0,0,.784-2.712c0-3.855-4.432-7.443-9.888-7.443s-9.888,3.591-9.888,7.443a5.2,5.2,0,0,0,.778,2.712C178.2,357.954,181.715,357.135,185.806,357.135Z" transform="translate(-174.778 -344.224)" fill="#cae8f9"/>
            <path id="패스_2518" data-name="패스 2518" d="M185.826,357.279c4.086,0,7.594.812,9.091,1.969a5.17,5.17,0,0,0,.783-2.692c0-3.827-4.427-7.39-9.874-7.39s-9.874,3.567-9.874,7.39a5.125,5.125,0,0,0,.777,2.692C178.227,358.092,181.741,357.279,185.826,357.279Z" transform="translate(-174.798 -344.342)" fill="#d0ebf9"/>
            <path id="패스_2519" data-name="패스 2519" d="M185.845,357.424c4.08,0,7.584.807,9.078,1.954a5.111,5.111,0,0,0,.781-2.671c0-3.8-4.42-7.337-9.86-7.337s-9.861,3.544-9.861,7.337a5.066,5.066,0,0,0,.776,2.671C178.256,358.23,181.766,357.424,185.845,357.424Z" transform="translate(-174.816 -344.46)" fill="#d6eefa"/>
            <path id="패스_2520" data-name="패스 2520" d="M185.864,357.567c4.075,0,7.573.8,9.065,1.94a5.046,5.046,0,0,0,.781-2.65c0-3.768-4.414-7.285-9.846-7.285s-9.846,3.52-9.846,7.285a5,5,0,0,0,.774,2.65C178.286,358.368,181.792,357.567,185.864,357.567Z" transform="translate(-174.836 -344.577)" fill="#dcf0fb"/>
            <path id="패스_2521" data-name="패스 2521" d="M185.883,357.712c4.07,0,7.562.794,9.052,1.924a4.985,4.985,0,0,0,.78-2.629c0-3.739-4.408-7.232-9.832-7.232s-9.833,3.5-9.833,7.232a4.944,4.944,0,0,0,.773,2.629C178.315,358.506,181.816,357.712,185.883,357.712Z" transform="translate(-174.855 -344.695)" fill="#e2f3fc"/>
            <path id="패스_2522" data-name="패스 2522" d="M185.9,357.857c4.064,0,7.551.788,9.04,1.909a4.926,4.926,0,0,0,.778-2.609c0-3.709-4.4-7.179-9.818-7.179s-9.82,3.473-9.82,7.179a4.878,4.878,0,0,0,.772,2.609C178.345,358.644,181.841,357.857,185.9,357.857Z" transform="translate(-174.874 -344.813)" fill="#e8f5fd"/>
            <path id="패스_2523" data-name="패스 2523" d="M185.922,358c4.058,0,7.54.782,9.027,1.895a4.866,4.866,0,0,0,.777-2.588c0-3.68-4.4-7.126-9.8-7.126s-9.805,3.45-9.805,7.126a4.813,4.813,0,0,0,.77,2.588C178.375,358.782,181.867,358,185.922,358Z" transform="translate(-174.894 -344.931)" fill="#eef8fd"/>
            <path id="패스_2524" data-name="패스 2524" d="M185.941,358.145c4.053,0,7.53.775,9.014,1.879a4.8,4.8,0,0,0,.776-2.567c0-3.651-4.39-7.074-9.79-7.074s-9.792,3.427-9.792,7.074a4.752,4.752,0,0,0,.769,2.567C178.4,358.92,181.891,358.145,185.941,358.145Z" transform="translate(-174.912 -345.049)" fill="#f4fafe"/>
            <path id="패스_2525" data-name="패스 2525" d="M185.961,358.289c4.048,0,7.519.769,9,1.864a4.742,4.742,0,0,0,.775-2.546c0-3.621-4.384-7.02-9.776-7.02s-9.778,3.4-9.778,7.02a4.69,4.69,0,0,0,.768,2.546C178.435,359.058,181.917,358.289,185.961,358.289Z" transform="translate(-174.932 -345.167)" fill="#fafdfe"/>
            <path id="패스_2526" data-name="패스 2526" d="M185.98,358.434c4.042,0,7.509.763,8.989,1.849a4.687,4.687,0,0,0,.773-2.526c0-3.592-4.378-6.968-9.762-6.968s-9.764,3.38-9.764,6.968a4.63,4.63,0,0,0,.766,2.526C178.464,359.2,181.942,358.434,185.98,358.434Z" transform="translate(-174.951 -345.284)" fill="#fff"/>
          </g>
        </g>
      </g>
    </g>
    <path id="패스_2528" data-name="패스 2528" d="M186.217,360.476a25.124,25.124,0,0,0-9.45,1.755,9.991,9.991,0,0,0,18.9,0A25.068,25.068,0,0,0,186.217,360.476Z" transform="translate(-175.221 -347.545)" fill="#006abd"/>
  </g>
</svg>
