<svg id="우체국" xmlns="http://www.w3.org/2000/svg" width="32" height="32" viewBox="0 0 32 32">
  <circle id="타원_70" data-name="타원 70" cx="16" cy="16" r="16" fill="#f5f5f5"/>
  <g id="그룹_820" data-name="그룹 820" transform="translate(-42.488 -235.674)">
    <path id="패스_2595" data-name="패스 2595" d="M45.525,318.03a.05.05,0,0,0,0,.1l3.924,2.592,1.125-5.289Z" transform="translate(0 -66.289)" fill="#e71618"/>
    <path id="패스_2596" data-name="패스 2596" d="M395.766,315.376h-.993a.463.463,0,0,0-.177.043l-4.975,2.563a.051.051,0,0,0-.006.1l3.861,2.54a.387.387,0,0,0,.171.049h.994c.051,0,.057-.022.015-.049l-3.938-2.593,5.059-2.606c.046-.023.04-.043-.01-.043" transform="translate(-327.001 -66.239)" fill="#f36a10"/>
    <path id="패스_2597" data-name="패스 2597" d="M317.464,315.376H310.55l-1.124,5.291h6.913c.051,0,.058-.022.015-.049l-3.932-2.593,5.052-2.606c.045-.023.04-.043-.01-.043" transform="translate(-250.825 -66.239)" fill="#e71618"/>
    <path id="패스_2598" data-name="패스 2598" d="M438.521,315.376h-.991a.463.463,0,0,0-.178.043l-4.974,2.563c-.047.024-.048.067,0,.1l3.857,2.54a.387.387,0,0,0,.172.049h.993c.052,0,.06-.022.015-.049l-3.938-2.593,5.06-2.606c.045-.023.041-.043-.012-.043" transform="translate(-367.635 -66.239)" fill="#ffa800"/>
    <path id="패스_2599" data-name="패스 2599" d="M120.838,245.674H104.561a1.66,1.66,0,0,0-1.7,1.279.954.954,0,0,0,.365.969l5.848,3.862,0,0v0l11.765-6.067c.046-.023.044-.042-.01-.042" transform="translate(-54.506 0)" fill="#e71618"/>
    <path id="패스_2600" data-name="패스 2600" d="M78.8,374.685h0l-9.173-6.059h-.006l-7.489,3.863a1.559,1.559,0,0,0-.777.969c-.151.705.24,1.279,1.151,1.279H78.788c.051,0,.058-.025.015-.052" transform="translate(-15.052 -116.844)" fill="#e71618"/>
  </g>
</svg>
