<svg id="전북은행" xmlns="http://www.w3.org/2000/svg" width="32" height="32" viewBox="0 0 32 32">
  <circle id="타원_70" data-name="타원 70" cx="16" cy="16" r="16" fill="#f5f5f5"/>
  <g id="그룹_839" data-name="그룹 839" transform="translate(-104.056 -255.445)">
    <rect id="사각형_569" data-name="사각형 569" width="18.885" height="18.885" transform="translate(111.056 262.445)" fill="#007cc6"/>
    <path id="패스_2578" data-name="패스 2578" d="M111.056,262.445l4.72,4.723,4.722-4.723Z" fill="#007cc6"/>
    <path id="패스_2579" data-name="패스 2579" d="M111.056,262.445v9.442l4.72-4.719Z" fill="#0085cf"/>
    <path id="패스_2580" data-name="패스 2580" d="M120.5,275.722,115.779,271l-4.723,4.722Z" transform="translate(0 -3.835)" fill="#007cc6"/>
    <path id="패스_2581" data-name="패스 2581" d="M124.335,271.887v-9.442l-4.719,4.72Z" transform="translate(-3.837)" fill="#0069bb"/>
    <path id="패스_2582" data-name="패스 2582" d="M128.17,262.445v9.442l4.72-4.719Z" transform="translate(-7.672)" fill="#0056a9"/>
    <path id="패스_2583" data-name="패스 2583" d="M137.613,275.722,132.893,271l-4.723,4.722Z" transform="translate(-7.672 -3.835)" fill="#003483"/>
    <path id="패스_2584" data-name="패스 2584" d="M111.056,279.559l4.72,4.723,4.722-4.723Z" transform="translate(0 -7.671)" fill="#0069bb"/>
    <path id="패스_2585" data-name="패스 2585" d="M111.056,279.559V289l4.72-4.72Z" transform="translate(0 -7.671)" fill="#0056a9"/>
    <path id="패스_2586" data-name="패스 2586" d="M120.5,292.836l-4.719-4.723-4.723,4.723Z" transform="translate(0 -11.506)" fill="#004b9e"/>
    <path id="패스_2587" data-name="패스 2587" d="M124.335,289V279.56l-4.719,4.719Z" transform="translate(-3.837 -7.672)" fill="#003988"/>
    <path id="패스_2588" data-name="패스 2588" d="M128.17,279.559l4.72,4.723,4.723-4.723Z" transform="translate(-7.672 -7.671)" fill="#001f6d"/>
    <path id="패스_2589" data-name="패스 2589" d="M128.17,279.559V289l4.72-4.72Z" transform="translate(-7.672 -7.671)" fill="#003483"/>
    <path id="패스_2590" data-name="패스 2590" d="M137.613,292.836l-4.72-4.723-4.723,4.723Z" transform="translate(-7.672 -11.506)" fill="#001f6d"/>
    <path id="패스_2591" data-name="패스 2591" d="M141.45,289V279.56l-4.72,4.719Z" transform="translate(-11.509 -7.672)" fill="#001f6d"/>
    <path id="패스_2592" data-name="패스 2592" d="M128.17,262.445l4.72,4.723,4.723-4.723Z" transform="translate(-7.672)" fill="#004b9e"/>
    <path id="패스_2593" data-name="패스 2593" d="M141.45,271.887v-9.442l-4.72,4.72Z" transform="translate(-11.509)" fill="#003988"/>
    <path id="패스_2594" data-name="패스 2594" d="M132.917,279.162l-6.046-5.76-9.176,9.2,3.348,3.347,5.828-5.74,6.046,6.013Z" transform="translate(-2.976 -4.912)" fill="#fff"/>
  </g>
</svg>
