<svg id="제주은행" xmlns="http://www.w3.org/2000/svg" xmlns:xlink="http://www.w3.org/1999/xlink" width="32" height="32" viewBox="0 0 32 32">
  <defs>
    <clipPath id="clip-path">
      <path id="패스_2533" data-name="패스 2533" d="M80.624,171.9a10.8,10.8,0,1,0,.5-.012c-.166,0-.333,0-.5.012" transform="translate(-70.295 -171.89)" fill="none"/>
    </clipPath>
    <clipPath id="clip-path-2">
      <path id="패스_2532" data-name="패스 2532" d="M69.689,171.89H91.845v21.9H69.689v-21.9" transform="translate(-69.689 -171.89)" fill="none"/>
    </clipPath>
    <radialGradient id="radial-gradient" cx="0.561" cy="0.334" r="0.47" gradientUnits="objectBoundingBox">
      <stop offset="0" stop-color="#fff"/>
      <stop offset="1" stop-color="#ce9031"/>
    </radialGradient>
    <clipPath id="clip-path-3">
      <path id="패스_2535" data-name="패스 2535" d="M78.472,191.872a6.9,6.9,0,0,1-3.929-1.6,7.559,7.559,0,0,1-2.233-3.6c-.357-1.243-.508-2.693.083-2.578.182.033.5.832.838,1.413a3.809,3.809,0,0,0,.907,1.136c.122.092.537-.83,1.141-1.355.351-.292.731-.39.8.476.072,1.058-.118,2.319.192,2.319.285,0,.939-.217,2.37-.339.54-.045.849.056.335.779a5.456,5.456,0,0,1-1.412,1.457c1.218,1.14,2.677,1,2.705,1.486.016.279-.528.434-1.243.434a5.255,5.255,0,0,1-.554-.03m4.1-10.245a1.747,1.747,0,0,1-1.343-1.244A3.667,3.667,0,0,1,81.189,179a9.267,9.267,0,0,1,.844-2.7c.5-1.251-.709-1.982-.513-2.44.273-.621,1.133.169,2.1.227.829.044,1.327.006,1.97.091a3.994,3.994,0,0,1,2.338.938c.417.491-.223,1.087-.988.714-.562-.274-1.268-.107-.854.479a1.877,1.877,0,0,0,1.248.7,1.291,1.291,0,0,1,.479,2.406c-1.076.79-2.173.462-2.608-1.086-.22-.774-.764-1.166-1.325-.945s-.226,1.235.2,2.178c.732,1.87-.748,2.066-1.316,2.066-.089,0-.155,0-.189-.008m-.8,10.6c-.01-.247.352-.31.352-.31,3.255-.643,2.3-2.777,1.152-3.865-.484-.456-5.013-4.366-5.013-4.366-4.318-3.719-3.973-6.619-3.973-6.619.213-3.574,3.335-4.459,5.7-4.253.276.023.432.189.38.423-.05.252-.417.268-.417.268a3.827,3.827,0,0,0-1.938.467c-1.906,1.283-1.347,3.464,1.2,5.893.321.3.661.627,1.012.956,0,0,.507.45,1.526,1.416,1.957,1.8,3.026,2.771,3.026,2.771,3.448,2.871,2.267,5.5.954,6.406a6.581,6.581,0,0,1-3.579,1.1l-.037,0a.325.325,0,0,1-.343-.292m-1.314-20.664a11,11,0,1,0,.5-.012c-.167,0-.336,0-.5.012" transform="translate(-69.952 -171.547)" fill="none"/>
    </clipPath>
    <clipPath id="clip-path-4">
      <path id="패스_2534" data-name="패스 2534" d="M69.334,171.547H91.86v22.261H69.334V171.547" transform="translate(-69.334 -171.547)" fill="none"/>
    </clipPath>
    <radialGradient id="radial-gradient-2" cx="0.579" cy="0.364" r="1.036" gradientUnits="objectBoundingBox">
      <stop offset="0" stop-color="#00afeb"/>
      <stop offset="0.219" stop-color="#0082ca"/>
      <stop offset="0.293" stop-color="#006bb7"/>
      <stop offset="0.378" stop-color="#005aa8"/>
      <stop offset="0.469" stop-color="#004f9f"/>
      <stop offset="0.573" stop-color="#004c9d"/>
      <stop offset="1" stop-color="#004c9d"/>
    </radialGradient>
  </defs>
  <circle id="타원_70" data-name="타원 70" cx="16" cy="16" r="16" fill="#f5f5f5"/>
  <g id="그룹_826" data-name="그룹 826" transform="translate(-64.952 -166.547)">
    <g id="그룹_782" data-name="그룹 782" transform="translate(70.133 171.728)">
      <g id="그룹_781" data-name="그룹 781" transform="translate(0)">
        <g id="그룹_780" data-name="그룹 780" clip-path="url(#clip-path)">
          <g id="그룹_779" data-name="그룹 779" transform="translate(-0.257 0)" opacity="0.67">
            <g id="그룹_778" data-name="그룹 778" clip-path="url(#clip-path-2)">
              <rect id="사각형_561" data-name="사각형 561" width="22.156" height="21.897" fill="url(#radial-gradient)"/>
            </g>
          </g>
        </g>
      </g>
    </g>
    <g id="그룹_787" data-name="그룹 787" transform="translate(69.952 171.547)">
      <g id="그룹_786" data-name="그룹 786">
        <g id="그룹_785" data-name="그룹 785" clip-path="url(#clip-path-3)">
          <g id="그룹_784" data-name="그룹 784" transform="translate(-0.263 0)">
            <g id="그룹_783" data-name="그룹 783" clip-path="url(#clip-path-4)">
              <rect id="사각형_562" data-name="사각형 562" width="22.526" height="22.261" fill="url(#radial-gradient-2)"/>
            </g>
          </g>
        </g>
      </g>
    </g>
  </g>
</svg>
