<svg id="제일은행" xmlns="http://www.w3.org/2000/svg" width="32" height="32" viewBox="0 0 32 32">
  <circle id="타원_70" data-name="타원 70" cx="16" cy="16" r="16" fill="#f5f5f5"/>
  <g id="그룹_790" data-name="그룹 790" transform="translate(-315.253 -353.884)">
    <path id="패스_2540" data-name="패스 2540" d="M327.9,400.49a3.459,3.459,0,0,1-1.775.589,2.916,2.916,0,0,1-2.872-2.753l2.971-1.77,4.624,2.068Z" transform="translate(0 -19.777)" fill="#6bacd2"/>
    <path id="패스_2541" data-name="패스 2541" d="M332.059,384.823l-2.21-.976c-.983-.439-1.917-.809-1.917-1.893a1.5,1.5,0,0,1,.44-1.151l4.672,2.058-1.155.668c-.322.2-.543.369-.543.616,0,.266.3.491.714.678" transform="translate(-2.392 -11.721)" fill="#aace8e"/>
    <path id="패스_2542" data-name="패스 2542" d="M334.277,362.908l-2.263,1.373c-.2.123-.472.317-.472.618,0,.345.526.607.989.827l-2.835-1.248c-.835-.368-1.669-.785-1.669-1.791a1.843,1.843,0,0,1,.32-1.06l6.125-3.742a2.769,2.769,0,0,1,1.446,2.384,2.937,2.937,0,0,1-1.642,2.639" transform="translate(-2.442 0)" fill="#6bacd2"/>
    <path id="패스_2543" data-name="패스 2543" d="M345.2,371.966l-.564.319-4.678-2.065,5.437-3.276a2.8,2.8,0,0,1,1.456,2.386,2.87,2.87,0,0,1-1.65,2.636" transform="translate(-8.541 -4.633)" fill="#aace8e"/>
    <path id="패스_2544" data-name="패스 2544" d="M341.474,385.356l2.769,1.216c1.038.461,1.355,1.009,1.355,1.695a1.449,1.449,0,0,1-.538,1.057l-4.654-2.068.786-.44c.668-.367.887-.59.887-.835s-.155-.421-.605-.624" transform="translate(-8.773 -14.049)" fill="#6bacd2"/>
    <path id="패스_2545" data-name="패스 2545" d="M338.073,393.243a19.538,19.538,0,0,0-3.966-2.215l-7.054-3.122c-1.774-.788-2.951-1.842-2.951-3.616a3.493,3.493,0,0,1,1.918-3.241l.391-.246a1.5,1.5,0,0,0-.439,1.151c0,1.085.933,1.454,1.917,1.893l8.21,3.621c1.428.61,2.736,1.666,2.736,3.461a3.693,3.693,0,0,1-.764,2.314" transform="translate(-0.434 -11.721)" fill="#299527"/>
    <path id="패스_2546" data-name="패스 2546" d="M337.39,378.87l-.513.32a1.447,1.447,0,0,0,.538-1.055c0-.689-.32-1.234-1.355-1.7l-8.778-3.866c-1.774-.784-2.877-1.8-2.877-3.56a3.862,3.862,0,0,1,2.09-3.472,1.839,1.839,0,0,0-.32,1.059c0,1.007.835,1.422,1.669,1.791l8.533,3.767c1.552.685,2.809,1.722,2.809,3.614a3.408,3.408,0,0,1-1.8,3.1" transform="translate(-0.589 -3.916)" fill="#006cad"/>
  </g>
</svg>
