<svg id="카카오뱅크" xmlns="http://www.w3.org/2000/svg" width="32" height="32" viewBox="0 0 32 32">
  <circle id="타원_70" data-name="타원 70" cx="16" cy="16" r="16" fill="#f5f5f5"/>
  <g id="그룹_827" data-name="그룹 827" transform="translate(-457.061 -445.52)">
    <path id="패스_2615" data-name="패스 2615" d="M482.581,468.228a2.786,2.786,0,0,1-2.788,2.785H465.849a2.787,2.787,0,0,1-2.788-2.785V454.3a2.786,2.786,0,0,1,2.788-2.784h13.943a2.786,2.786,0,0,1,2.788,2.784Z" transform="translate(0 0)" fill="#ffe400"/>
    <path id="패스_2616" data-name="패스 2616" d="M634.937,578.377a2.733,2.733,0,0,0-.951-1.742c-.079-.068-.162-.132-.255-.208.077-.058.142-.1.2-.153a2.882,2.882,0,0,0,.847-1.172,2.67,2.67,0,0,0,.156-1.36,2.7,2.7,0,0,0-.7-1.49,2.759,2.759,0,0,0-.992-.7,3,3,0,0,0-1.158-.219h-4.443a.843.843,0,0,0-.092,0,.186.186,0,0,0-.178.191c0,.031,0,.062,0,.092v9.6c0,.048,0,.1,0,.145a.171.171,0,0,0,.147.161.571.571,0,0,0,.092,0h4.6a2.607,2.607,0,0,0,1.321-.353,2.811,2.811,0,0,0,1.249-1.447A2.639,2.639,0,0,0,634.937,578.377Zm-3.536.345h-.83v-4.581h.821s0,0,0,0v0h.009Z" transform="translate(-157.929 -115.161)" fill="#1e1719"/>
  </g>
</svg>
