<svg id="하나은행" xmlns="http://www.w3.org/2000/svg" width="32" height="32" viewBox="0 0 32 32">
  <circle id="타원_70" data-name="타원 70" cx="16" cy="16" r="16" fill="#f5f5f5"/>
  <g id="그룹_774" data-name="그룹 774" transform="translate(-58.975 -750.798)">
    <path id="패스_2529" data-name="패스 2529" d="M142.554,362.586a3.672,3.672,0,0,0-.261-.892,4.376,4.376,0,0,0-1.763-2.04,3.963,3.963,0,0,0-4.085.025,3.6,3.6,0,0,0-1.345,1.44,4.329,4.329,0,0,0-.255.631,4.43,4.43,0,0,0,.279,3.448,1.737,1.737,0,0,0,.826.719,1.2,1.2,0,0,0,1.068-.083,1.134,1.134,0,0,0,.4-1.2,3.128,3.128,0,0,1,.041-1.668,1.293,1.293,0,0,1,.295-.474,1.083,1.083,0,0,1,.281-.194,1.189,1.189,0,0,1,.706-.115,1.35,1.35,0,0,1,.947.773,3.139,3.139,0,0,1,.256,1.236,18.606,18.606,0,0,1-.822,5.526c-.048.182-.1.363-.151.544-.041.14-.112.319-.021.456a.353.353,0,0,0,.162.126.621.621,0,0,0,.68-.242,9.849,9.849,0,0,0,2.249-3.934,12.442,12.442,0,0,0,.431-1.645,7.158,7.158,0,0,0,.083-2.441" transform="translate(-64.916 407.284)" fill="#006f64"/>
    <path id="패스_2530" data-name="패스 2530" d="M136.293,342.648a.472.472,0,0,0-.509-.453,2.54,2.54,0,0,0-.759.243,30.772,30.772,0,0,1-15.132,1.428c-.858-.123-1.726-.3-2.588-.431-.538-.084-1.073-.206-1.617-.248a1.965,1.965,0,0,0-1.416.271,1.5,1.5,0,0,0-.179,1.772,3.994,3.994,0,0,0,1.54,1.488,3.729,3.729,0,0,0,2.017.69q2.873-.185,5.73-.555a38.38,38.38,0,0,0,9.7-2.08,12.174,12.174,0,0,0,2.834-1.589c.155-.118.378-.311.378-.536" transform="translate(-50.914 418.698)" fill="#006f64"/>
    <path id="패스_2531" data-name="패스 2531" d="M140.871,334.584a1.871,1.871,0,1,0,3.741,0,1.054,1.054,0,0,0-.1-.448c-.159-.34-.342-.505-.321-.911.022-.551-.681-.558-1.063-.558a2.738,2.738,0,0,0-1.224.245,1.878,1.878,0,0,0-1.032,1.628v.044" transform="translate(-69.132 425.131)" fill="#c30029"/>
  </g>
</svg>
